<svg xmlns="http://www.w3.org/2000/svg" width="291" height="331" viewBox="0 0 291 331" fill="none">
    <path
        d="M125.311 15.3709C123.909 18.3598 122.452 21.6283 121.01 25.1128C114.277 41.3896 107.44 63.4115 109.044 83.8884C111.751 118.437 124.05 137.379 137.367 147.463C150.412 157.34 163.134 157.719 165.114 157.719C165.299 157.719 165.491 157.72 165.69 157.72C170.311 157.728 178.643 157.743 187.189 153.718C196.454 149.353 204.973 140.794 210.691 125.38C217.708 106.463 218.115 89.5942 216.74 77.4098C216.571 75.9152 216.375 74.4902 216.162 73.1394C219.757 75.1001 223.809 77.6028 228.067 80.6005C239.914 88.9413 252.768 100.702 261.66 114.478C278.724 140.91 282.433 160.417 282.433 190.441C282.433 267.982 226.875 322.922 149.223 322.922C71.6274 322.922 8.72343 260.018 8.72343 182.422C8.72343 142.947 19.7976 106.795 42.0694 76.9522C61.1612 51.3702 88.7286 30.0949 125.311 15.3709Z"
        fill="url(#paint0_linear_1_2)" stroke="white" stroke-width="16" />
    <defs>
        <linearGradient id="paint0_linear_1_2" x1="145.578" y1="330.922" x2="145.578" y2="0.940546"
            gradientUnits="userSpaceOnUse">
            <stop stop-color="#DC3E40" />
            <stop offset="1" stop-color="#EE46E0" />
        </linearGradient>
    </defs>
</svg>